<svg id="Layer_1" data-name="Layer 1" xmlns="http://www.w3.org/2000/svg" width="171.47mm" height="128.92mm" viewBox="0 0 486.07 365.43"><defs><style>.cls-1{fill:none;}.cls-1,.cls-2,.cls-3{stroke:#fff;stroke-miterlimit:10;}.cls-2,.cls-3{fill:#fff;}.cls-3{font-size:52.67px;font-family:AgletSlab-Regular, Aglet Slab;}</style></defs><title>Artboard 3 copy</title><path class="cls-1" d="M349.21,122.8a22.72,22.72,0,0,1,9.67-2.7,18,18,0,0,1,10.88,2.54c3.46,2.24,5.56,5.62,5.19,6s-2.7-2.41-5.67-2.48c-4.25-.1-7.16,5.51-8,7.11-4.21,8.11-.31,12-3.72,20-.77,1.79-3.6,8.41-10.64,11-8,3-15.88-1.18-17.41-2-4.61-2.95-6.2-5.89-6.84-7.84C318.17,140.9,343.4,125.85,349.21,122.8Z"/><path class="cls-1" d="M313.26,103.05A33,33,0,0,1,323.4,92.54c2.53-1.65,8.1-5.17,15.51-4.84,6,.27,11.11,3,10.95,3.75s-5.16-1-8.93,1.07c-5.41,3-4.92,12.18-4.78,14.8.7,13.27,8.48,15.31,10.09,27.85.36,2.8,1.69,13.18-5.21,21.66-7.79,9.58-20.78,10.22-23.31,10.3-7.94-.3-12.11-2.82-14.35-4.78C287.69,148.6,308.23,111.16,313.26,103.05Z"/><path class="cls-1" d="M280.24,90.05a39.92,39.92,0,0,1,10-14.65c2.7-2.48,8.66-7.82,17.6-8.92,7.23-.9,13.91,1.28,13.87,2.27s-6.38-.2-10.47,3.09c-5.87,4.7-3.43,15.58-2.74,18.69,3.52,15.75,13.26,16.62,17.72,31.3,1,3.29,4.69,15.45-1.85,27-7.4,13-22.82,16.45-25.84,17.06-9.57,1.24-15.06-.93-18.14-2.83C258.83,149.77,275.84,100.78,280.24,90.05Z"/><path class="cls-1" d="M156.8,122.31a22.8,22.8,0,0,0-9.59-3,18,18,0,0,0-11,2.22c-3.53,2.14-5.73,5.45-5.37,5.87s2.77-2.32,5.74-2.3c4.26,0,7,5.72,7.78,7.35,4,8.23-.06,12,3.11,20.12.71,1.81,3.34,8.51,10.3,11.35,7.86,3.2,15.91-.7,17.47-1.49,4.69-2.81,6.36-5.7,7.07-7.62C187.27,141.33,162.51,125.54,156.8,122.31Z"/><path class="cls-1" d="M193.32,103.66a32.79,32.79,0,0,0-9.81-10.82c-2.48-1.73-7.94-5.41-15.36-5.3-6,.08-11.2,2.61-11.05,3.41s5.18-.88,8.89,1.34c5.31,3.18,4.55,12.33,4.33,14.94-1.1,13.24-8.94,15-10.93,27.53-.44,2.79-2.09,13.12,4.55,21.81,7.5,9.81,20.46,10.84,23,11,7.95-.06,12.19-2.45,14.49-4.35C217.5,150,198.11,111.91,193.32,103.66Z"/><path class="cls-1" d="M226.73,91.65a40,40,0,0,0-9.56-14.93c-2.62-2.57-8.42-8.08-17.32-9.46-7.2-1.11-13.94.86-13.93,1.85s6.38,0,10.37,3.41c5.72,4.88,3,15.68,2.17,18.77-4,15.63-13.75,16.21-18.66,30.75-1.09,3.25-5.15,15.29,1,27,7,13.26,22.31,17.13,25.31,17.83,9.53,1.53,15.08-.47,18.22-2.28C246.32,152,230.8,102.51,226.73,91.65Z"/><path class="cls-1" d="M296.13,102.86c-5.12-6-13.34-11.52-14.57-12.35-5.67-3.81-8.74-4.86-13.73-9.51a38,38,0,0,1-8.19-10.12,30.69,30.69,0,0,1-1.43-3.07c-.74-3.44-1.45-6.21-2-8-.18-1.46-.24-2.32-.5-2.33-.09,0-.21.1-.34.3-.12-.2-.24-.31-.33-.31-.26,0-.34.86-.57,2.31-.63,1.76-1.43,4.51-2.27,7.93a33,33,0,0,1-1.52,3,38.21,38.21,0,0,1-8.49,9.86c-5.13,4.5-8.23,5.46-14,9.09-1.26.79-9.64,6.11-14.94,11.91-7.33,8-13.1,21.7-10.41,36.2.6,3.21,3.31,17.76,16.26,25.51a36.93,36.93,0,0,0,17.58,5.06h0l33,.5v-.06a36.67,36.67,0,0,0,18.79-4.47c13.17-7.35,16.32-21.81,17-25C308.57,125,303.21,111.1,296.13,102.86Z"/><path class="cls-1" d="M350.58,274.88a22.62,22.62,0,0,0,9.66,2.72,17.91,17.91,0,0,0,10.89-2.51c3.47-2.24,5.58-5.61,5.2-6s-2.7,2.41-5.67,2.47c-4.26.08-7.15-5.53-8-7.13-4.19-8.12-.28-12-3.67-20-.76-1.79-3.57-8.42-10.61-11.06-7.95-3-15.89,1.14-17.42,2-4.61,2.93-6.21,5.87-6.86,7.81C319.59,256.71,344.77,271.81,350.58,274.88Z"/><path class="cls-1" d="M314.59,294.54a32.77,32.77,0,0,0,10.1,10.54c2.53,1.65,8.09,5.18,15.5,4.87,6-.25,11.12-2.92,11-3.72s-5.16,1-8.92-1.09c-5.4-3-4.9-12.2-4.75-14.82.73-13.26,8.52-15.29,10.16-27.81.36-2.81,1.72-13.18-5.16-21.68-7.77-9.6-20.75-10.27-23.29-10.36-7.94.28-12.11,2.79-14.35,4.75C289.13,248.93,309.57,286.42,314.59,294.54Z"/><path class="cls-1" d="M281.53,307.47a39.91,39.91,0,0,0,10,14.66c2.7,2.49,8.65,7.85,17.59,9,7.22.92,13.9-1.25,13.87-2.24s-6.38.18-10.47-3.11c-5.85-4.72-3.39-15.6-2.69-18.7,3.56-15.74,13.3-16.59,17.8-31.26,1-3.28,4.73-15.43-1.79-27-7.36-13.07-22.78-16.5-25.79-17.12-9.57-1.27-15.07.89-18.16,2.78C260.26,247.69,277.16,296.73,281.53,307.47Z"/><path class="cls-1" d="M158.16,274.91a22.68,22.68,0,0,1-9.59,3,18,18,0,0,1-10.95-2.24c-3.52-2.15-5.71-5.46-5.35-5.89s2.76,2.33,5.73,2.32c4.26,0,7-5.71,7.8-7.33,4-8.23,0-12,3.16-20.12.72-1.81,3.36-8.5,10.33-11.32,7.87-3.19,15.91.74,17.46,1.53,4.68,2.82,6.36,5.71,7.05,7.64C188.68,256,163.89,271.69,158.16,274.91Z"/><path class="cls-1" d="M194.64,293.65a32.89,32.89,0,0,1-9.83,10.79c-2.49,1.72-8,5.39-15.37,5.27-6-.1-11.19-2.64-11.05-3.45s5.18.89,8.89-1.31c5.32-3.17,4.58-12.32,4.37-14.94-1.07-13.24-8.9-15.06-10.86-27.55-.44-2.79-2.06-13.12,4.6-21.8,7.52-9.79,20.49-10.79,23-10.94,8,.08,12.18,2.48,14.47,4.38C218.94,247.4,199.45,285.4,194.64,293.65Z"/><path class="cls-1" d="M228,305.73a40.15,40.15,0,0,1-9.59,14.92c-2.63,2.55-8.44,8.05-17.35,9.41-7.2,1.09-13.93-.9-13.93-1.89s6.39,0,10.39-3.38c5.73-4.86,3-15.67,2.21-18.76-4-15.64-13.71-16.24-18.58-30.8-1.09-3.25-5.12-15.3,1.1-27,7-13.25,22.35-17.08,25.35-17.77,9.54-1.51,15.09.51,18.22,2.32C247.76,245.43,232.12,294.88,228,305.73Z"/><path class="cls-1" d="M297.45,294.69c-5.14,5.94-13.37,11.49-14.6,12.32-5.68,3.79-8.75,4.83-13.76,9.47a38.43,38.43,0,0,0-8.21,10.1,31.77,31.77,0,0,0-1.43,3.07c-.75,3.44-1.47,6.21-2.05,8-.19,1.46-.25,2.31-.51,2.32-.09,0-.21-.1-.34-.29-.12.19-.24.31-.33.3-.26,0-.34-.86-.56-2.31-.63-1.76-1.42-4.51-2.26-7.93a27.62,27.62,0,0,0-1.51-3,38.16,38.16,0,0,0-8.46-9.88c-5.12-4.51-8.22-5.47-14-9.12-1.26-.8-9.63-6.13-14.91-11.95-7.31-8-13.05-21.73-10.32-36.22.61-3.21,3.35-17.76,16.31-25.47a36.93,36.93,0,0,1,17.6-5h0l33-.42v.06a36.66,36.66,0,0,1,18.78,4.51c13.16,7.38,16.27,21.85,16.95,25.05C309.94,272.63,304.55,286.47,297.45,294.69Z"/><line class="cls-2" x1="61.69" y1="171.76" x2="442.84" y2="170.52"/><line class="cls-2" x1="63.57" y1="226.11" x2="444.72" y2="224.86"/><text class="cls-3" transform="translate(169.01 217.38)">KAMAL</text></svg>
